<svg xmlns="http://www.w3.org/2000/svg" viewBox="0 0 240 80" role="img" aria-labelledby="title">
  <title id="title">Dummy Logo</title>
  <rect width="240" height="80" rx="12" fill="#ffffff"/>
  <g transform="translate(24 10) scale(1.48)">
    <g id="Logo">
      <g id="logotype" fill="#262745">
        <path fill-rule="evenodd" clip-rule="evenodd" d="M34.6326 12.4954V30.5759C33.5759 31.7842 32.6967 32.7979 31.876 33.7491C31.0554 34.6994 30.2942 35.5873 29.4753 36.5468C28.6565 37.5072 27.7791 38.5401 26.7279 39.7888C26.2768 39.8724 26.0518 39.9146 25.6017 40C24.4763 39.0846 23.9137 38.6301 22.7902 37.7303C24.1386 36.0976 24.814 35.2888 26.1643 33.6784C27.2906 34.5975 27.8541 35.0602 28.9822 35.9949C29.4333 35.4652 29.6592 35.1998 30.1103 34.6728V27.3274C28.7561 28.9104 28.0796 29.7108 26.727 31.3132C26.2759 31.3968 26.0509 31.439 25.6007 31.5244C24.813 30.8835 24.222 30.4061 23.6319 29.9314C23.0418 29.4567 22.4517 28.9829 21.6667 28.3576V18.7527C22.7142 17.4773 23.588 16.4224 24.405 15.4418C25.222 14.4612 25.9804 13.5549 26.7983 12.5835C27.6163 11.6121 28.4927 10.5764 29.5458 9.34236C29.9968 9.26523 30.2228 9.22759 30.6748 9.15322C31.4652 9.8143 32.059 10.3138 32.6519 10.8151C33.2447 11.3164 33.8403 11.8196 34.6326 12.4954ZM26.1643 14.4676V25.2028C27.2906 26.1219 27.8541 26.5846 28.9822 27.5193C29.4333 26.9896 29.6592 26.7251 30.1103 26.1972V15.462C28.9813 14.5208 28.4177 14.0544 27.2906 13.1298C26.8395 13.6642 26.6144 13.9314 26.1643 14.4676Z"/>
        <path fill-rule="evenodd" clip-rule="evenodd" d="M60.7924 9.80787C62.161 8.42695 62.8454 7.74199 64.2141 6.38494C64.6706 6.38494 64.8984 6.38494 65.355 6.38678C66.1537 7.18099 66.752 7.78056 67.3513 8.38196C67.9505 8.98336 68.5489 9.58659 69.3476 10.3964V20.0014C68.3595 20.9581 67.5352 21.7615 66.7667 22.5144C65.9981 23.2673 65.2836 23.9715 64.5151 24.7327C63.7466 25.4948 62.9223 26.3138 61.9333 27.3054C61.4767 26.8592 61.2489 26.6361 60.7924 26.1926V30.7127C61.4767 31.3784 61.8189 31.7126 62.5032 32.3847C60.9058 33.9822 60.108 34.792 58.5106 36.4164C56.9132 34.8795 56.1173 34.1186 54.5207 32.6143C55.2051 31.9036 55.5463 31.5492 56.2307 30.844V9.93825C55.7751 9.50396 55.5463 9.28819 55.0907 8.85665C56.0029 7.91094 56.4585 7.44083 57.3706 6.50614C58.2828 6.47492 58.7393 6.46207 59.6515 6.44003C60.108 6.88167 60.3358 7.10295 60.7924 7.54642V9.80787ZM60.7924 10.9381V21.6743C61.9332 22.7843 62.5032 23.3426 63.6441 24.4683C64.1006 24.0147 64.3285 23.7879 64.785 23.3371V12.6019C63.6441 11.4707 63.0741 10.9088 61.9333 9.79226C61.4767 10.2495 61.2489 10.4772 60.7924 10.9381Z"/>
        <path d="M88.1323 8.86124V23.5519C88.813 24.3076 89.1543 24.6868 89.835 25.4489C91.1963 24.2598 91.8761 23.6713 93.2356 22.5043V11.7691C92.7828 11.254 92.5559 10.9969 92.1021 10.4846C93.0088 9.70228 93.4616 9.31298 94.3674 8.5408C95.2731 8.6721 95.7251 8.74004 96.6299 8.88144C97.0819 9.40388 97.3088 9.66648 97.7607 10.1917V34.4873C98.2127 35.0125 98.4387 35.276 98.8897 35.8031C100.019 34.8619 100.583 34.3955 101.71 33.4709C103.062 35.0722 103.738 35.8796 105.086 37.5044C103.962 38.4106 103.399 38.8679 102.272 39.7897C101.822 39.7062 101.596 39.6658 101.146 39.585C100.094 38.3418 99.2163 37.3134 98.3966 36.3576C97.5769 35.4018 96.8147 34.5185 95.9941 33.5728C95.1734 32.6271 94.2933 31.6171 93.2356 30.4152V23.6346C90.7434 25.7738 89.4956 26.861 86.9969 29.0756C86.5422 29.0261 86.3153 29.0022 85.8606 28.9554C85.0656 28.0822 84.4682 27.4312 83.8716 26.782C83.2751 26.1329 82.6777 25.4856 81.8808 24.628C82.5633 24.0073 82.9046 23.6979 83.5871 23.0827V10.6526C83.1324 10.1586 82.9046 9.91254 82.4499 9.42132C83.3602 8.59589 83.8149 8.18639 84.7243 7.37105C85.6337 7.46012 86.0884 7.50694 86.9969 7.60611C87.4516 8.10743 87.6785 8.35717 88.1323 8.86124Z"/>
        <path d="M6.06213 9.11098V30.5814C6.72543 31.0653 7.05754 31.3086 7.72267 31.798C6.17101 33.8198 5.397 34.8434 3.85264 36.8911C2.3083 35.7801 1.5361 35.2321 0 34.1503C0.658728 33.2579 0.989007 32.8126 1.64956 31.9247V12.7139C1.2095 12.4017 0.989007 12.2456 0.549855 11.9353C1.42907 10.7472 1.86914 10.1559 2.7511 8.97785C3.63307 8.70423 4.07405 8.56926 4.95784 8.30575C5.39974 8.62619 5.62115 8.78595 6.06304 9.10915L6.06213 9.11098Z"/>
        <path fill-rule="evenodd" clip-rule="evenodd" d="M21.1058 14.9166V24.5215C20.0592 25.7996 19.1873 26.872 18.3749 27.8774C17.5624 28.8828 16.8085 29.8203 15.9979 30.8348C15.1873 31.8494 14.3191 32.9411 13.2789 34.2605C12.8333 34.3735 12.6101 34.4313 12.1654 34.547C11.3859 33.8455 10.8022 33.3231 10.2194 32.8025C9.63664 32.2819 9.05294 31.764 8.2771 31.0772V22.037C9.31185 20.6918 10.1755 19.5781 10.9834 18.5433C11.7903 17.5085 12.5405 16.5509 13.3493 15.5262C14.1581 14.5006 15.0254 13.4062 16.0684 12.1015C16.5149 11.9949 16.739 11.9417 17.1864 11.837C17.9696 12.4449 18.5569 12.9049 19.1452 13.3667C19.7335 13.8285 20.3218 14.2922 21.1067 14.9156L21.1058 14.9166ZM12.7217 17.4516V28.1868C13.8351 29.0306 14.3932 29.4567 15.5094 30.3161C15.9559 29.756 16.1791 29.476 16.6265 28.9186V18.1825C15.5085 17.3167 14.9504 16.8879 13.836 16.0376C13.3905 16.6014 13.1672 16.8851 12.7217 17.4516Z"/>
        <path fill-rule="evenodd" clip-rule="evenodd" d="M48.2564 20.5798C46.132 22.855 45.1427 23.8658 43.068 26.2082C42.2437 27.1144 41.3599 28.0886 40.3004 29.2675C39.8466 29.3208 39.6198 29.3483 39.166 29.4034C38.3718 28.5973 37.7771 27.9959 37.1815 27.3963C36.5859 26.7967 35.9922 26.1999 35.199 25.4085V16.3682C36.2557 15.1635 37.1367 14.1664 37.9601 13.24C38.7835 12.3136 39.5475 11.4578 40.3718 10.5415C41.1961 9.62516 42.079 8.64731 43.1394 7.48307C43.5941 7.43624 43.821 7.41329 44.2757 7.36922C45.0716 8.08263 45.6682 8.6216 46.2656 9.1624C46.863 9.7032 47.4604 10.2458 48.2564 10.9739V20.5798ZM39.7323 12.3843V23.1195C40.8668 24.1138 41.4349 24.6143 42.5703 25.6242C43.025 25.1238 43.2519 24.875 43.7066 24.3774V13.6421C42.5703 12.6266 42.0021 12.1226 40.8668 11.1218C40.413 11.6258 40.1861 11.8774 39.7323 12.3843Z"/>
        <path d="M53.9507 7.78239V22.4731C54.6342 23.1167 54.9763 23.439 55.6607 24.0881C54.8629 24.9136 54.2646 25.5361 53.6662 26.1604C53.0679 26.7848 52.4695 27.411 51.6726 28.252C50.8749 27.5102 50.2774 26.9574 49.68 26.4074C49.0826 25.8565 48.4842 25.3084 47.6883 24.5821C48.3708 23.8485 48.7129 23.4831 49.3955 22.7559V10.3248C48.9398 9.90612 48.712 9.69677 48.2573 9.28084C49.1676 8.30575 49.6233 7.82004 50.5345 6.85504C51.4457 6.79353 51.9014 6.76598 52.8126 6.71456C53.2682 7.14059 53.496 7.35453 53.9526 7.78331L53.9507 7.78239Z"/>
        <path d="M81.8808 9.93733C80.5158 11.1786 79.8324 11.8057 78.4655 13.0692C77.3264 11.8627 76.7574 11.2632 75.6174 10.0723C75.1618 10.5002 74.934 10.7141 74.4774 11.1447V18.4901C76.3017 16.7694 77.2124 15.928 79.0346 14.239C80.1736 14.3188 80.7427 14.3629 81.8799 14.4575C82.3346 14.9478 82.5624 15.1938 83.0171 15.686V20.7708C81.9558 21.7303 81.0702 22.5383 80.2441 23.2958C79.4179 24.0533 78.6503 24.7612 77.8232 25.5287C76.9962 26.2963 76.1105 27.1227 75.0465 28.1235C74.5909 28.1005 74.3631 28.0895 73.9065 28.0684C72.7666 26.8867 72.1966 26.3 71.0566 25.1339C72.4253 23.821 73.1079 23.1691 74.4765 21.8799C75.6165 23.0644 76.1865 23.6612 77.3255 24.8612C77.7811 24.437 78.009 24.2259 78.4646 23.8044V15.8944C76.8691 17.369 76.0722 18.1133 74.4765 19.6194C73.1088 19.5533 72.4244 19.5267 71.0566 19.4835C70.6001 19.0171 70.3723 18.7848 69.9157 18.3202V14.3647C70.9798 13.3382 71.8672 12.4898 72.6943 11.7021C73.5223 10.9143 74.2899 10.1871 75.1179 9.40939C75.9449 8.6317 76.8315 7.80167 77.8946 6.81556C78.3502 6.84494 78.578 6.86055 79.0336 6.89177C80.1727 8.10192 80.7418 8.71066 81.879 9.9355L81.8808 9.93733Z"/>
        <path d="M104.523 11.4009V15.921C106.771 14.1012 107.894 13.2184 110.134 11.4514C110.582 11.5524 110.806 11.6029 111.254 11.7066C112.037 12.6781 112.623 13.4108 113.21 14.1453C113.796 14.8798 114.382 15.6162 115.162 16.6032C116.723 15.4133 117.501 14.825 119.057 13.666C119.501 13.7863 119.723 13.8478 120.167 13.9708C120.943 14.9772 121.525 15.7365 122.106 16.4976C122.687 17.2588 123.268 18.0209 124.042 19.0437C123.379 19.5239 123.047 19.7654 122.383 20.2502V30.4207C123.047 31.2912 123.379 31.7282 124.042 32.6042C122.494 33.7242 121.718 34.2947 120.167 35.4422C118.613 33.4296 117.835 32.4331 116.276 30.4465C116.945 29.9405 117.279 29.689 117.946 29.1876V19.0171C117.278 18.1614 116.944 17.7353 116.276 16.8851C115.163 17.7289 114.606 18.1549 113.489 19.0143V28.0546C114.158 28.8948 114.493 29.3162 115.162 30.1627C113.602 31.3526 112.819 31.9594 111.254 33.1771C109.688 31.2343 108.904 30.272 107.332 28.3576C108.005 27.8214 108.342 27.5542 109.014 27.0235V16.8539C108.342 16.0285 108.005 15.6171 107.332 14.7972C106.209 15.6915 105.647 16.1423 104.523 17.0513V26.0916C105.198 26.9023 105.535 27.3082 106.209 28.1244C104.637 29.3841 103.849 30.0256 102.272 31.3132C100.694 29.4402 99.9056 28.5143 98.3243 26.6682C99.0023 26.1017 99.3408 25.8198 100.018 25.2597V12.8296C99.5668 12.2989 99.3408 12.0344 98.8888 11.5074C99.7918 10.7545 100.243 10.3808 101.145 9.63801C102.047 9.79961 102.497 9.88224 103.398 10.0539C103.848 10.592 104.074 10.861 104.523 11.4009Z"/>
        <path d="M129 16.0716C127.672 16.9944 127.006 17.4617 125.673 18.4074C124.361 16.6465 123.704 15.7714 122.383 14.0342C123.702 13.06 124.36 12.5789 125.673 11.6268C127.007 13.3932 127.672 14.2838 129 16.0716Z"/>
        <path d="M55.1163 3.20624C54.1941 4.15196 53.733 4.62757 52.8117 5.58338C51.9005 5.6348 51.4448 5.66326 50.5336 5.72386C49.6324 4.88006 49.1823 4.46138 48.282 3.62768C49.6381 2.16597 50.3167 1.4397 51.6726 0C53.0506 1.27074 53.7362 1.91267 55.1163 3.20624Z"/>
      </g>
    </g>
  </g>
</svg>
